<?xml version="1.0"?>
<svg xmlns="http://www.w3.org/2000/svg" xmlns:xlink="http://www.w3.org/1999/xlink" xmlns:svgjs="http://svgjs.com/svgjs" version="1.1" width="512" height="512" x="0" y="0" viewBox="0 0 512 512" style="enable-background:new 0 0 512 512" xml:space="preserve" class=""><g><path xmlns="http://www.w3.org/2000/svg" d="m245.304688 216 64-32 64 32v80l-64 32-64-32-64 32-64-32v-80l64-32 64 32v80" fill="#00e9cc" data-original="#00e9cc" style=""/><path xmlns="http://www.w3.org/2000/svg" d="m124.804688 67.363281v-67.363281h-15v67.363281l-55.019532 27.511719-44.179687-44.179688-10.605469 10.609376 45.804688 45.800781v73.789062l-29.804688 29.800781 10.605469 10.609376 28.179687-28.179688 59.164063 29.582031 6.707031-13.414062-59.851562-29.929688v-70.726562l56.5-28.25 56.5 28.25v43.363281h15v-52.636719zm0 0" fill="#ffffff" data-original="#000000" style="" class=""/><path xmlns="http://www.w3.org/2000/svg" d="m85.304688 160.5h16v15h-16zm0 0" fill="#ffffff" data-original="#000000" style="" class=""/><path xmlns="http://www.w3.org/2000/svg" d="m480 461.304688 10.605469-10.609376-45.800781-45.800781v-73.789062l29.800781-29.800781-10.605469-10.609376-28.179688 28.179688-59.164062-29.582031-6.707031 13.414062 59.855469 29.929688v70.726562l-56.5 28.25-56.5-28.25v-43.363281h-15v52.636719l64 32v67.363281h15v-67.363281l55.015624-27.511719zm0 0" fill="#ffffff" data-original="#000000" style="" class=""/><path xmlns="http://www.w3.org/2000/svg" d="m341.304688 384.5h16v15h-16zm0 0" fill="#ffffff" data-original="#000000" style="" class=""/><path xmlns="http://www.w3.org/2000/svg" d="m397.804688 336h15v64h-15zm0 0" fill="#ffffff" data-original="#000000" style="" class=""/><path xmlns="http://www.w3.org/2000/svg" d="m141.804688 224h15v64h-15zm0 0" fill="#ffffff" data-original="#000000" style="" class=""/></g></svg>
