<?xml version="1.0"?>
<svg xmlns="http://www.w3.org/2000/svg" xmlns:xlink="http://www.w3.org/1999/xlink" xmlns:svgjs="http://svgjs.com/svgjs" version="1.1" width="512" height="512" x="0" y="0" viewBox="0 0 512 512" style="enable-background:new 0 0 512 512" xml:space="preserve" class=""><g><path xmlns="http://www.w3.org/2000/svg" d="m512 199.472656c0-14.78125-7.042969-28.890625-20.9375-41.9375l-10.265625 10.9375c10.75 10.097656 16.203125 20.527344 16.203125 31 0 21.308594-23.257812 42.804688-63.980469 59.300782-10.242187-19.585938-23.089843-39.804688-38.085937-60.03125 14.453125-20.003907 26.75-39.945313 36.46875-59.222657 4.648437 1.851563 9.125 3.78125 13.410156 5.792969l6.375-13.574219c-4.265625-2.003906-8.71875-3.929687-13.328125-5.777343.171875-.382813.351563-.765626.519531-1.148438 22.097656-49.914062 22.796875-88.871094 1.976563-109.691406-20.820313-20.820313-59.777344-20.121094-109.691407 1.976562-24.21875 10.722656-49.792968 25.882813-75.445312 44.546875-23.78125-16.835937-47.414062-30.601562-69.878906-40.546875-49.914063-22.097656-88.871094-22.796875-109.695313-1.976562-4.886719 4.890625-8.652343 10.867187-11.1875 17.769531l14.082031 5.171875c1.777344-4.84375 4.375-8.992188 7.714844-12.335938 15.898438-15.894531 49.804688-14.039062 93.015625 5.085938 20.347657 9.007812 41.726563 21.304688 63.328125 36.289062-10.691406 8.253907-21.363281 17.09375-31.917968 26.449219-44.519532 3.117188-85.929688 10.824219-120.484376 22.503907-5.222656-12.125-9.136718-23.644532-11.597656-34.269532l-14.613281 3.382813c2.632813 11.367187 6.675781 23.4375 12.042969 36.046875-49.039063 19.273437-76.027344 45.605468-76.027344 74.257812 0 28.289063 26.300781 54.3125 74.140625 73.515625-.171875.382813-.351563.765625-.519531 1.148438-22.097656 49.914062-22.796875 88.871093-1.976563 109.691406 9.996094 10 24.476563 15.125 42.382813 15.125 4.769531 0 9.777344-.363281 15.011718-1.09375l-2.078124-14.855469c-13.980469 1.953125-33.082032 1.84375-44.707032-9.78125-15.898437-15.898437-14.046875-49.800781 5.085938-93.015625.289062-.65625.59375-1.316406.890625-1.976562 34.8125 12.011719 76.769531 19.933593 121.9375 23.132812 10.78125 9.738281 21.695312 18.9375 32.648437 27.539063-23.828125 16.890625-47.441406 30.558594-69.789062 40.214844l5.949218 13.769531c24.457032-10.570313 50.320313-25.707031 76.300782-44.472657 26.96875 19.996094 53.925781 36.167969 79.386718 47.4375 25.734376 11.394532 48.558594 17.101563 67.484376 17.101563 17.78125 0 32.121093-5.039063 42.207031-15.125 20.820312-20.820313 20.121093-59.777344-1.976563-109.691406-.863281-1.953125-1.769531-3.917969-2.6875-5.882813 46.683594-19.132812 72.308594-44.863281 72.308594-72.78125zm-126.578125-13.191406c-15.222656-19.386719-32.332031-38.667969-50.945313-57.28125-5.070312-5.070312-10.191406-10.019531-15.347656-14.855469 36.25 3.703125 69.792969 10.578125 98.09375 20.171875-8.636718 16.921875-19.335937 34.386719-31.800781 51.964844zm-48.6875-155.46875c43.214844-19.128906 77.117187-20.984375 93.011719-5.085938 15.898437 15.898438 14.046875 49.800782-5.085938 93.015626-.289062.65625-.59375 1.316406-.894531 1.976562-34.863281-12.015625-77.351563-20.019531-123.027344-23.195312-10.859375-9.4375-21.820312-18.320313-32.792969-26.578126 23.453126-16.734374 46.726563-30.367187 68.789063-40.132812zm-81.402344 49.417969c6.886719 5.09375 13.777344 10.457031 20.652344 16.054687-6.617187-.203125-13.28125-.3125-19.984375-.3125-7.003906 0-13.964844.117188-20.871094.335938 6.71875-5.589844 13.457032-10.960938 20.203125-16.078125zm-62.691406 33.917969c-3.726563 3.558593-7.4375 7.171874-11.117187 10.851562-19.816407 19.816406-37.925782 40.386719-53.867188 61.042969-12.390625-17.878907-22.890625-35.539063-31.136719-52.292969 28.058594-9.335938 60.804688-15.988281 96.121094-19.601562zm-112.035156 145.269531c-41.726563-16.578125-65.605469-38.351563-65.605469-59.945313 0-21.875 24.507812-43.9375 67.257812-60.597656 9.265626 19.078125 21.332032 39.183594 35.929688 59.796875-14.925781 20.515625-27.617188 40.984375-37.582031 60.746094zm115.527343 7.925781c-16.632812-16.636719-32.203124-33.984375-46.277343-51.570312l-11.710938 9.371093c14.417969 18.015625 30.359375 35.78125 47.382813 52.804688 2.300781 2.304687 4.621094 4.578125 6.945312 6.835937-35.984375-3.695312-69.296875-10.535156-97.691406-20.164062 21.375-41.867188 55.421875-87.082032 97.351562-129.015625 8.121094-8.121094 16.367188-15.9375 24.6875-23.433594 12.832032-.789063 25.921876-1.199219 39.179688-1.199219 13.074219 0 25.996094.40625 38.675781 1.179688 9.847657 8.703125 19.605469 17.867187 29.191407 27.453125 19.269531 19.269531 36.875 39.234375 52.351562 59.246093-16.421875 21.765626-35.398438 43.539063-56.351562 64.492188-8.125 8.121094-16.363282 15.9375-24.675782 23.425781-12.855468.792969-25.949218 1.207031-39.191406 1.207031-13.40625 0-26.636719-.417968-39.609375-1.226562-6.816406-6.257812-13.578125-12.730469-20.257813-19.40625zm38.210938 35.269531c7.164062.234375 14.386719.359375 21.65625.359375 7.007812 0 13.972656-.117187 20.886719-.335937-7.148438 5.953125-14.320313 11.652343-21.492188 17.066406-7.035156-5.4375-14.058593-11.144531-21.050781-17.089844zm199.402344 74.609375c-15.894532 15.898438-49.800782 14.042969-93.011719-5.085937-23.34375-10.332031-48.050781-24.996094-72.882813-43.082031 11.214844-8.597657 22.414063-17.84375 33.492188-27.667969 36.085938-2.53125 70.285156-8.078125 100.644531-16.433594l-3.980469-14.460937c-24.027343 6.609374-50.585937 11.410156-78.628906 14.289062 3.71875-3.550781 7.421875-7.160156 11.09375-10.832031 20.328125-20.324219 38.859375-41.445313 55.097656-62.632813 18.089844 24.835938 32.753907 49.546875 43.089844 72.894532 19.132813 43.210937 20.984375 77.113281 5.085938 93.011718zm0 0" fill="#ffffff" data-original="#000000" style=""/><g xmlns="http://www.w3.org/2000/svg" fill="#00e9cc"><path d="m256 143.972656c-30.601562 0-55.5 24.898438-55.5 55.5 0 30.605469 24.898438 55.5 55.5 55.5s55.5-24.894531 55.5-55.5c0-30.601562-24.898438-55.5-55.5-55.5zm0 0" fill="#00e9cc" data-original="#00e9cc" style="" class=""/><path d="m72 31.972656c-17.367188 0-31.5 14.132813-31.5 31.5 0 17.371094 14.132812 31.5 31.5 31.5s31.5-14.128906 31.5-31.5c0-17.367187-14.132812-31.5-31.5-31.5zm0 0" fill="#00e9cc" data-original="#00e9cc" style="" class=""/><path d="m472 111.972656c-17.367188 0-31.5 14.132813-31.5 31.5 0 17.371094 14.132812 31.5 31.5 31.5s31.5-14.128906 31.5-31.5c0-17.367187-14.132812-31.5-31.5-31.5zm0 0" fill="#00e9cc" data-original="#00e9cc" style="" class=""/><path d="m152 351.972656c-17.367188 0-31.5 14.132813-31.5 31.5 0 17.371094 14.132812 31.5 31.5 31.5s31.5-14.128906 31.5-31.5c0-17.367187-14.132812-31.5-31.5-31.5zm0 0" fill="#00e9cc" data-original="#00e9cc" style="" class=""/></g><path xmlns="http://www.w3.org/2000/svg" d="m240 175.972656h16v15h-16zm0 0" fill="#ffffff" data-original="#000000" style=""/></g></svg>
