<?xml version="1.0"?>
<svg xmlns="http://www.w3.org/2000/svg" xmlns:xlink="http://www.w3.org/1999/xlink" xmlns:svgjs="http://svgjs.com/svgjs" version="1.1" width="512" height="512" x="0" y="0" viewBox="0 0 512 512" style="enable-background:new 0 0 512 512" xml:space="preserve" class=""><g><path xmlns="http://www.w3.org/2000/svg" d="m299.894531 178.617188v333.382812h-276.046875v-333.382812" fill="#00e9cc" data-original="#00e9cc" style="" class=""/><path xmlns="http://www.w3.org/2000/svg" d="m40.085938 256.507812h227.332031v15.222657h-227.332031zm0 0" fill="#ffffff" data-original="#000000" style="" class=""/><path xmlns="http://www.w3.org/2000/svg" d="m40.085938 418.886719h211.09375v15.222656h-211.09375zm0 0" fill="#ffffff" data-original="#000000" style="" class=""/><path xmlns="http://www.w3.org/2000/svg" d="m389.707031 0h15.222657v48.714844h-15.222657zm0 0" fill="#ffffff" data-original="#000000" style="" class=""/><path xmlns="http://www.w3.org/2000/svg" d="m72.5625 313.339844h178.617188v15.222656h-178.617188zm0 0" fill="#ffffff" data-original="#000000" style="" class=""/><path xmlns="http://www.w3.org/2000/svg" d="m72.5625 362.054688h129.902344v15.222656h-129.902344zm0 0" fill="#ffffff" data-original="#000000" style="" class=""/><path xmlns="http://www.w3.org/2000/svg" d="m422.183594 89.308594h15.222656v64.949218h-15.222656zm0 0" fill="#ffffff" data-original="#000000" style="" class=""/><path xmlns="http://www.w3.org/2000/svg" d="m332.367188 170.886719 64.953124 32.476562 72.5625-36.28125v-90.597656l-72.5625-36.28125-63.449218 31.722656-28.59375-28.59375-10.765625 10.761719 30.246093 30.25v73.332031l-17.253906 8.625v-45.023437h8.628906v-15.222656h-316.132812v80.171874h267.648438l-7.84375 3.925782v90.597656l72.5625 36.28125 64.953124-32.476562 57.339844 28.667968v71.78125l-57.339844 28.671875-57.339843-28.671875v-44.007812h-15.222657v45.558594l-62.722656 62.722656 10.765625 10.765625 61.070313-61.074219 55.835937 27.921875v44.007813h15.222657v-44.011719l64.953124-32.472657v-90.601562l-64.953124-32.472656v-44.011719h-15.222657v44.011719l-57.339843 28.667968-57.339844-28.667968v-71.78125zm7.613281-84.992188 57.339843-28.671875 57.339844 28.671875v71.777344l-57.339844 28.671875-57.339843-28.671875zm-64.953125 35.382813h17.253906v49.726562h-17.253906zm-242.550782 49.726562h-17.253906v-49.726562h17.253906zm32.476563 0h-17.253906v-49.726562h17.253906zm32.472656 0h-17.25v-49.726562h17.25zm32.476563 0h-17.253906v-49.726562h17.253906zm32.476562 0h-17.253906v-49.726562h17.253906zm32.476563 0h-17.253907v-49.726562h17.253907zm32.472656 0h-17.25v-49.726562h17.25zm32.476563 0h-17.25v-49.726562h17.25zm0 0" fill="#ffffff" data-original="#000000" style="" class=""/><path xmlns="http://www.w3.org/2000/svg" d="m364.84375 138.527344h16.238281v15.226562h-16.238281zm0 0" fill="#ffffff" data-original="#000000" style="" class=""/><path xmlns="http://www.w3.org/2000/svg" d="m413.558594 317.144531h16.238281v15.222657h-16.238281zm0 0" fill="#ffffff" data-original="#000000" style="" class=""/><path xmlns="http://www.w3.org/2000/svg" d="m357.234375 316.636719h15.222656v64.953125h-15.222656zm0 0" fill="#ffffff" data-original="#000000" style="" class=""/></g></svg>
