<?xml version="1.0"?>
<svg xmlns="http://www.w3.org/2000/svg" xmlns:xlink="http://www.w3.org/1999/xlink" xmlns:svgjs="http://svgjs.com/svgjs" version="1.1" width="512" height="512" x="0" y="0" viewBox="0 0 512 512" style="enable-background:new 0 0 512 512" xml:space="preserve" class=""><g><path xmlns="http://www.w3.org/2000/svg" d="m113.382812 457.316406 52.9375-31.757812 7.714844 12.859375-52.933594 31.761719zm0 0" fill="#ffffff" data-original="#000000" style="" class=""/><path xmlns="http://www.w3.org/2000/svg" d="m273.351562 198.671875 7.714844-12.863281 52.539063 31.515625-7.71875 12.863281zm0 0" fill="#ffffff" data-original="#000000" style="" class=""/><path xmlns="http://www.w3.org/2000/svg" d="m195.644531 215.957031 48-28.800781 7.71875 12.863281-48 28.800781zm0 0" fill="#ffffff" data-original="#000000" style="" class=""/><path xmlns="http://www.w3.org/2000/svg" d="m256 104h15v64h-15zm0 0" fill="#ffffff" data-original="#000000" style="" class=""/><path xmlns="http://www.w3.org/2000/svg" d="m195.644531 56.027344 7.714844-12.859375 48.003906 28.800781-7.71875 12.863281zm0 0" fill="#ffffff" data-original="#000000" style="" class=""/><path xmlns="http://www.w3.org/2000/svg" d="m115.640625 71.960938 48-28.800782 7.71875 12.863282-48 28.800781zm0 0" fill="#ffffff" data-original="#000000" style="" class=""/><path xmlns="http://www.w3.org/2000/svg" d="m96 136h15v32h-15zm0 0" fill="#ffffff" data-original="#000000" style="" class=""/><path xmlns="http://www.w3.org/2000/svg" d="m195.640625 440.027344 7.71875-12.863282 48.003906 28.800782-7.71875 12.863281zm0 0" fill="#ffffff" data-original="#000000" style="" class=""/><path xmlns="http://www.w3.org/2000/svg" d="m275.652344 455.953125 48-28.800781 7.71875 12.863281-48.003906 28.800781zm0 0" fill="#ffffff" data-original="#000000" style="" class=""/><path xmlns="http://www.w3.org/2000/svg" d="m336 344h15v40h-15zm0 0" fill="#ffffff" data-original="#000000" style="" class=""/><path xmlns="http://www.w3.org/2000/svg" d="m275.644531 296.027344 7.71875-12.859375 48 28.800781-7.714843 12.863281zm0 0" fill="#ffffff" data-original="#000000" style="" class=""/><path xmlns="http://www.w3.org/2000/svg" d="m195.648438 311.957031 48-28.800781 7.71875 12.863281-48.003907 28.800781zm0 0" fill="#ffffff" data-original="#000000" style="" class=""/><path xmlns="http://www.w3.org/2000/svg" d="m32.980469 54.433594 7.71875-12.863282 50.664062 30.398438-7.71875 12.863281zm0 0" fill="#ffffff" data-original="#000000" style="" class=""/><path xmlns="http://www.w3.org/2000/svg" d="m115.644531 200.03125 7.714844-12.863281 48.003906 28.800781-7.71875 12.863281zm0 0" fill="#ffffff" data-original="#000000" style="" class=""/><path xmlns="http://www.w3.org/2000/svg" d="m35.644531 215.960938 48-28.796876 7.71875 12.859376-48 28.800781zm0 0" fill="#ffffff" data-original="#000000" style="" class=""/><path xmlns="http://www.w3.org/2000/svg" d="m16 248h15v64h-15zm0 0" fill="#ffffff" data-original="#000000" style="" class=""/><path xmlns="http://www.w3.org/2000/svg" d="m35.640625 344.027344 7.71875-12.859375 48 28.800781-7.714844 12.863281zm0 0" fill="#ffffff" data-original="#000000" style="" class=""/><path xmlns="http://www.w3.org/2000/svg" d="m115.648438 359.957031 48-28.796875 7.71875 12.859375-48 28.800781zm0 0" fill="#ffffff" data-original="#000000" style="" class=""/><path xmlns="http://www.w3.org/2000/svg" d="m256 488h15v24h-15zm0 0" fill="#ffffff" data-original="#000000" style="" class=""/><path xmlns="http://www.w3.org/2000/svg" d="m176 0h15v24h-15zm0 0" fill="#ffffff" data-original="#000000" style="" class=""/><path xmlns="http://www.w3.org/2000/svg" d="m176 248h15v64h-15zm0 0" fill="#ffffff" data-original="#000000" style="" class=""/><path xmlns="http://www.w3.org/2000/svg" d="m48 248h15v64h-15zm0 0" fill="#ffffff" data-original="#000000" style="" class=""/><path xmlns="http://www.w3.org/2000/svg" d="m231.5 416.5h16v15h-16zm0 0" fill="#ffffff" data-original="#000000" style="" class=""/><path xmlns="http://www.w3.org/2000/svg" d="m151.5 176.5h16v15h-16zm0 0" fill="#ffffff" data-original="#000000" style="" class=""/><g xmlns="http://www.w3.org/2000/svg" fill="#00e9cc"><path d="m343.5 255.5c12.957031 0 23.5-10.542969 23.5-23.5s-10.542969-23.5-23.5-23.5-23.5 10.542969-23.5 23.5 10.542969 23.5 23.5 23.5zm0 0" fill="#00e9cc" data-original="#00e9cc" style="" class=""/><path d="m263.5 64.5c-12.957031 0-23.5 10.542969-23.5 23.5s10.542969 23.5 23.5 23.5 23.5-10.542969 23.5-23.5-10.542969-23.5-23.5-23.5zm0 0" fill="#00e9cc" data-original="#00e9cc" style="" class=""/><path d="m183.5 16.5c-12.957031 0-23.5 10.542969-23.5 23.5s10.542969 23.5 23.5 23.5 23.5-10.542969 23.5-23.5-10.542969-23.5-23.5-23.5zm0 0" fill="#00e9cc" data-original="#00e9cc" style="" class=""/><path d="m263.5 160.5c-12.957031 0-23.5 10.542969-23.5 23.5s10.542969 23.5 23.5 23.5 23.5-10.542969 23.5-23.5-10.542969-23.5-23.5-23.5zm0 0" fill="#00e9cc" data-original="#00e9cc" style="" class=""/><path d="m343.5 304.5c-12.957031 0-23.5 10.542969-23.5 23.5s10.542969 23.5 23.5 23.5 23.5-10.542969 23.5-23.5-10.542969-23.5-23.5-23.5zm0 0" fill="#00e9cc" data-original="#00e9cc" style="" class=""/><path d="m263.5 256.5c-12.957031 0-23.5 10.542969-23.5 23.5s10.542969 23.5 23.5 23.5 23.5-10.542969 23.5-23.5-10.542969-23.5-23.5-23.5zm0 0" fill="#00e9cc" data-original="#00e9cc" style="" class=""/><path d="m263.5 448.5c-12.957031 0-23.5 10.542969-23.5 23.5s10.542969 23.5 23.5 23.5 23.5-10.542969 23.5-23.5-10.542969-23.5-23.5-23.5zm0 0" fill="#00e9cc" data-original="#00e9cc" style="" class=""/><path d="m183.5 400.5c-12.957031 0-23.5 10.542969-23.5 23.5s10.542969 23.5 23.5 23.5 23.5-10.542969 23.5-23.5-10.542969-23.5-23.5-23.5zm0 0" fill="#00e9cc" data-original="#00e9cc" style="" class=""/><path d="m343.5 400.5c-12.957031 0-23.5 10.542969-23.5 23.5s10.542969 23.5 23.5 23.5 23.5-10.542969 23.5-23.5-10.542969-23.5-23.5-23.5zm0 0" fill="#00e9cc" data-original="#00e9cc" style="" class=""/><path d="m23.5 208.5c-12.957031 0-23.5 10.542969-23.5 23.5s10.542969 23.5 23.5 23.5 23.5-10.542969 23.5-23.5-10.542969-23.5-23.5-23.5zm0 0" fill="#00e9cc" data-original="#00e9cc" style="" class=""/><path d="m103.5 64.5c-12.957031 0-23.5 10.542969-23.5 23.5s10.542969 23.5 23.5 23.5 23.5-10.542969 23.5-23.5-10.542969-23.5-23.5-23.5zm0 0" fill="#00e9cc" data-original="#00e9cc" style="" class=""/><path d="m183.5 208.5c-12.957031 0-23.5 10.542969-23.5 23.5s10.542969 23.5 23.5 23.5 23.5-10.542969 23.5-23.5-10.542969-23.5-23.5-23.5zm0 0" fill="#00e9cc" data-original="#00e9cc" style="" class=""/><path d="m103.5 160.5c-12.957031 0-23.5 10.542969-23.5 23.5s10.542969 23.5 23.5 23.5 23.5-10.542969 23.5-23.5-10.542969-23.5-23.5-23.5zm0 0" fill="#00e9cc" data-original="#00e9cc" style="" class=""/><path d="m103.5 352.5c-12.957031 0-23.5 10.542969-23.5 23.5s10.542969 23.5 23.5 23.5 23.5-10.542969 23.5-23.5-10.542969-23.5-23.5-23.5zm0 0" fill="#00e9cc" data-original="#00e9cc" style="" class=""/><path d="m103.5 448.5c-12.957031 0-23.5 10.542969-23.5 23.5s10.542969 23.5 23.5 23.5 23.5-10.542969 23.5-23.5-10.542969-23.5-23.5-23.5zm0 0" fill="#00e9cc" data-original="#00e9cc" style="" class=""/><path d="m23.5 304.5c-12.957031 0-23.5 10.542969-23.5 23.5s10.542969 23.5 23.5 23.5 23.5-10.542969 23.5-23.5-10.542969-23.5-23.5-23.5zm0 0" fill="#00e9cc" data-original="#00e9cc" style="" class=""/><path d="m183.5 304.5c-12.957031 0-23.5 10.542969-23.5 23.5s10.542969 23.5 23.5 23.5 23.5-10.542969 23.5-23.5-10.542969-23.5-23.5-23.5zm0 0" fill="#00e9cc" data-original="#00e9cc" style="" class=""/><path d="m23.5 16.5c-12.957031 0-23.5 10.542969-23.5 23.5s10.542969 23.5 23.5 23.5 23.5-10.542969 23.5-23.5-10.542969-23.5-23.5-23.5zm0 0" fill="#00e9cc" data-original="#00e9cc" style="" class=""/></g></g></svg>
